# Blender 4.0.2
# www.blender.org
o a
v 0.000000 0.000000 -1.000000
v -0.195090 0.000000 -0.980785
v -0.382683 0.000000 -0.923880
v -0.555570 0.000000 -0.831470
v -0.707107 0.000000 -0.707107
v -0.831470 0.000000 -0.555570
v -0.923880 0.000000 -0.382683
v -0.980785 0.000000 -0.195090
v -1.000000 0.000000 0.000000
v -0.980785 0.000000 0.195090
v -0.923880 0.000000 0.382683
v -0.831470 0.000000 0.555570
v -0.707107 0.000000 0.707107
v -0.555570 0.000000 0.831470
v -0.382683 0.000000 0.923880
v -0.195090 0.000000 0.980785
v 0.000000 0.000000 1.000000
v 0.195090 0.000000 0.980785
v 0.382683 0.000000 0.923880
v 0.555570 0.000000 0.831470
v 0.707107 0.000000 0.707107
v 0.831470 0.000000 0.555570
v 0.923880 0.000000 0.382683
v 0.980785 0.000000 0.195090
v 1.000000 0.000000 0.000000
v 0.980785 0.000000 -0.195090
v 0.923880 0.000000 -0.382683
v 0.831470 0.000000 -0.555570
v 0.707107 0.000000 -0.707107
v 0.555570 0.000000 -0.831470
v 0.382683 0.000000 -0.923880
v 0.195090 0.000000 -0.980785
v 0.195090 -0.010000 -0.980785
v -0.195090 -0.010000 -0.980785
v 0.000000 -0.010000 -1.000000
v 0.382683 -0.010000 -0.923880
v 0.707107 -0.010000 0.707107
v 0.382683 -0.010000 0.923880
v -0.555570 -0.010000 0.831470
v -0.555570 -0.010000 -0.831470
v -0.382683 -0.010000 -0.923880
v 0.555570 -0.010000 -0.831470
v 0.707107 -0.010000 -0.707107
v -0.831470 -0.010000 -0.555570
v -0.707107 -0.010000 -0.707107
v 0.831470 -0.010000 -0.555570
v 0.923880 -0.010000 -0.382683
v -0.923880 -0.010000 -0.382683
v 0.980785 -0.010000 -0.195090
v -0.980785 -0.010000 -0.195090
v 1.000000 -0.010000 0.000000
v -1.000000 -0.010000 0.000000
v 0.980785 -0.010000 0.195090
v -0.980785 -0.010000 0.195090
v 0.923880 -0.010000 0.382683
v -0.923880 -0.010000 0.382683
v 0.831470 -0.010000 0.555570
v -0.831470 -0.010000 0.555570
v -0.707107 -0.010000 0.707107
v 0.555570 -0.010000 0.831470
v -0.382683 -0.010000 0.923880
v 0.195090 -0.010000 0.980785
v -0.195090 -0.010000 0.980785
v 0.000000 -0.010000 1.000000
vn 0.1420 0.6857 -0.7139
vn -0.0000 0.6857 -0.7279
vn -0.1420 0.6857 -0.7139
vn 0.2786 0.6857 -0.6725
vn 0.5147 0.6857 0.5147
vn -0.4044 0.6857 0.6052
vn 0.2786 0.6857 0.6725
vn -0.2786 0.6857 -0.6725
vn -0.4044 0.6857 -0.6052
vn 0.4044 0.6857 -0.6052
vn 0.5147 0.6857 -0.5147
vn -0.5147 0.6857 -0.5147
vn -0.6052 0.6857 -0.4044
vn 0.6052 0.6857 -0.4044
vn 0.6725 0.6857 -0.2786
vn -0.6725 0.6857 -0.2786
vn 0.7139 0.6857 -0.1420
vn -0.7139 0.6857 -0.1420
vn 0.7279 0.6857 -0.0000
vn -0.7279 0.6857 -0.0000
vn 0.7139 0.6857 0.1420
vn -0.7139 0.6857 0.1420
vn 0.6725 0.6857 0.2786
vn -0.6725 0.6857 0.2786
vn 0.6052 0.6857 0.4044
vn -0.6052 0.6857 0.4044
vn -0.5147 0.6857 0.5147
vn 0.4044 0.6857 0.6052
vn -0.2786 0.6857 0.6725
vn 0.1420 0.6857 0.7139
vn -0.1420 0.6857 0.7139
vn -0.0000 0.6857 0.7279
vn 0.1420 -0.6857 -0.7139
vn -0.1420 -0.6857 -0.7139
vn -0.0000 -0.6857 -0.7279
vn 0.2786 -0.6857 -0.6725
vn 0.5147 -0.6857 0.5147
vn 0.2786 -0.6857 0.6725
vn -0.4044 -0.6857 0.6052
vn -0.4044 -0.6857 -0.6052
vn -0.2786 -0.6857 -0.6725
vn 0.4044 -0.6857 -0.6052
vn 0.5147 -0.6857 -0.5147
vn -0.6052 -0.6857 -0.4044
vn -0.5147 -0.6857 -0.5147
vn 0.6052 -0.6857 -0.4044
vn 0.6725 -0.6857 -0.2786
vn -0.6725 -0.6857 -0.2786
vn 0.7139 -0.6857 -0.1420
vn -0.7139 -0.6857 -0.1420
vn 0.7279 -0.6857 -0.0000
vn -0.7279 -0.6857 -0.0000
vn 0.7139 -0.6857 0.1420
vn -0.7139 -0.6857 0.1420
vn 0.6725 -0.6857 0.2786
vn -0.6725 -0.6857 0.2786
vn 0.6052 -0.6857 0.4044
vn -0.6052 -0.6857 0.4044
vn -0.5147 -0.6857 0.5147
vn 0.4044 -0.6857 0.6052
vn -0.2786 -0.6857 0.6725
vn 0.1420 -0.6857 0.7139
vn -0.1420 -0.6857 0.7139
vn -0.0000 -0.6857 0.7279
vt 0.000000 0.000000
s 1
f 32/1/1 1/1/2 2/1/3
f 31/1/4 32/1/1 2/1/3
f 21/1/5 14/1/6 19/1/7
f 2/1/3 3/1/8 4/1/9
f 30/1/10 2/1/3 4/1/9
f 29/1/11 30/1/10 4/1/9
f 30/1/10 31/1/4 2/1/3
f 4/1/9 5/1/12 6/1/13
f 28/1/14 4/1/9 6/1/13
f 27/1/15 28/1/14 6/1/13
f 27/1/15 6/1/13 7/1/16
f 26/1/17 27/1/15 7/1/16
f 26/1/17 7/1/16 8/1/18
f 25/1/19 26/1/17 8/1/18
f 25/1/19 8/1/18 9/1/20
f 24/1/21 25/1/19 9/1/20
f 24/1/21 9/1/20 10/1/22
f 23/1/23 24/1/21 10/1/22
f 23/1/23 10/1/22 11/1/24
f 22/1/25 23/1/23 11/1/24
f 22/1/25 11/1/24 12/1/26
f 21/1/5 22/1/25 12/1/26
f 13/1/27 14/1/6 12/1/26
f 28/1/14 29/1/11 4/1/9
f 14/1/6 21/1/5 12/1/26
f 20/1/28 21/1/5 19/1/7
f 19/1/7 14/1/6 15/1/29
f 18/1/30 19/1/7 15/1/29
f 18/1/30 15/1/29 16/1/31
f 17/1/32 18/1/30 16/1/31
f 33/1/33 34/1/34 35/1/35
f 36/1/36 34/1/34 33/1/33
f 37/1/37 38/1/38 39/1/39
f 34/1/34 40/1/40 41/1/41
f 42/1/42 40/1/40 34/1/34
f 43/1/43 40/1/40 42/1/42
f 42/1/42 34/1/34 36/1/36
f 40/1/40 44/1/44 45/1/45
f 46/1/46 44/1/44 40/1/40
f 47/1/47 44/1/44 46/1/46
f 47/1/47 48/1/48 44/1/44
f 49/1/49 48/1/48 47/1/47
f 49/1/49 50/1/50 48/1/48
f 51/1/51 50/1/50 49/1/49
f 51/1/51 52/1/52 50/1/50
f 53/1/53 52/1/52 51/1/51
f 53/1/53 54/1/54 52/1/52
f 55/1/55 54/1/54 53/1/53
f 55/1/55 56/1/56 54/1/54
f 57/1/57 56/1/56 55/1/55
f 57/1/57 58/1/58 56/1/56
f 37/1/37 58/1/58 57/1/57
f 59/1/59 58/1/58 39/1/39
f 46/1/46 40/1/40 43/1/43
f 39/1/39 58/1/58 37/1/37
f 60/1/60 38/1/38 37/1/37
f 38/1/38 61/1/61 39/1/39
f 62/1/62 61/1/61 38/1/38
f 62/1/62 63/1/63 61/1/61
f 64/1/64 63/1/63 62/1/62
f 21/1/5 57/1/57 22/1/25
f 8/1/18 52/1/52 9/1/20
f 22/1/25 55/1/55 23/1/23
f 9/1/20 54/1/54 10/1/22
f 23/1/23 53/1/53 24/1/21
f 10/1/22 56/1/56 11/1/24
f 24/1/21 51/1/51 25/1/19
f 11/1/24 58/1/58 12/1/26
f 25/1/19 49/1/49 26/1/17
f 12/1/26 59/1/59 13/1/27
f 26/1/17 47/1/47 27/1/15
f 13/1/27 39/1/39 14/1/6
f 27/1/15 46/1/46 28/1/14
f 14/1/6 61/1/61 15/1/29
f 1/1/2 34/1/34 2/1/3
f 28/1/14 43/1/43 29/1/11
f 15/1/29 63/1/63 16/1/31
f 2/1/3 41/1/41 3/1/8
f 29/1/11 42/1/42 30/1/10
f 16/1/31 64/1/64 17/1/32
f 3/1/8 40/1/40 4/1/9
f 30/1/10 36/1/36 31/1/4
f 17/1/32 62/1/62 18/1/30
f 4/1/9 45/1/45 5/1/12
f 31/1/4 33/1/33 32/1/1
f 18/1/30 38/1/38 19/1/7
f 5/1/12 44/1/44 6/1/13
f 32/1/1 35/1/35 1/1/2
f 19/1/7 60/1/60 20/1/28
f 6/1/13 48/1/48 7/1/16
f 20/1/28 37/1/37 21/1/5
f 7/1/16 50/1/50 8/1/18
f 21/1/5 37/1/37 57/1/57
f 8/1/18 50/1/50 52/1/52
f 22/1/25 57/1/57 55/1/55
f 9/1/20 52/1/52 54/1/54
f 23/1/23 55/1/55 53/1/53
f 10/1/22 54/1/54 56/1/56
f 24/1/21 53/1/53 51/1/51
f 11/1/24 56/1/56 58/1/58
f 25/1/19 51/1/51 49/1/49
f 12/1/26 58/1/58 59/1/59
f 26/1/17 49/1/49 47/1/47
f 13/1/27 59/1/59 39/1/39
f 27/1/15 47/1/47 46/1/46
f 14/1/6 39/1/39 61/1/61
f 1/1/2 35/1/35 34/1/34
f 28/1/14 46/1/46 43/1/43
f 15/1/29 61/1/61 63/1/63
f 2/1/3 34/1/34 41/1/41
f 29/1/11 43/1/43 42/1/42
f 16/1/31 63/1/63 64/1/64
f 3/1/8 41/1/41 40/1/40
f 30/1/10 42/1/42 36/1/36
f 17/1/32 64/1/64 62/1/62
f 4/1/9 40/1/40 45/1/45
f 31/1/4 36/1/36 33/1/33
f 18/1/30 62/1/62 38/1/38
f 5/1/12 45/1/45 44/1/44
f 32/1/1 33/1/33 35/1/35
f 19/1/7 38/1/38 60/1/60
f 6/1/13 44/1/44 48/1/48
f 20/1/28 60/1/60 37/1/37
f 7/1/16 48/1/48 50/1/50
