# Blender 4.0.2
# www.blender.org
mtllib ../materials/testMaterial3.mtl
o Cube
v -0.607143 0.000000 0.287474
v -0.607143 0.676447 0.287474
v -0.607143 0.000000 -0.306273
v -0.607143 0.676447 -0.306273
v 0.865321 0.000000 0.287474
v 0.865321 0.676447 0.287474
v 0.865321 0.000000 -0.306273
v 0.865321 0.676447 -0.306273
v -0.193571 0.000000 0.287474
v 0.340071 0.000000 0.287474
v -0.142354 0.676447 0.287474
v -0.193571 0.000000 0.707670
v 0.340071 0.000000 0.707670
v -0.142354 0.676447 0.707670

vn -1.0000 -0.0000 -0.0000
vn -0.0000 -0.0000 -1.0000
vn 1.0000 -0.0000 -0.0000
vn -0.0000 -0.0000 1.0000
vn -0.0000 -1.0000 -0.0000
vn -0.0000 1.0000 -0.0000
vn 0.8142 0.5806 -0.0000
vn -0.9971 0.0755 -0.0000

vt 0.625000 0.000000
vt 0.375000 0.250000
vt 0.375000 0.000000
vt 0.625000 0.250000
vt 0.375000 0.500000
vt 0.625000 0.500000
vt 0.375000 0.750000
vt 0.625000 0.750000
vt 0.375000 0.839179
vt 0.285821 0.750000
vt 0.195218 0.750000
vt 0.875000 0.500000
vt 0.796086 0.750000
vt 0.625000 0.921086
vt 0.375000 0.929782
vt 0.625000 1.000000
vt 0.375000 1.000000
vt 0.125000 0.750000
vt 0.125000 0.500000
vt 0.875000 0.750000
s 0
f 2/1/1 3/2/1 1/3/1
f 4/4/2 7/5/2 3/2/2
f 8/6/3 5/7/3 7/5/3
f 6/8/4 10/9/4 5/7/4
f 7/5/5 10/10/5 9/11/5
f 4/12/6 11/13/6 6/8/6
f 11/14/7 13/9/7 10/9/7
f 9/15/4 2/16/4 1/17/4
f 13/9/4 14/14/4 12/15/4
f 9/15/8 14/14/8 11/14/8
f 2/1/1 4/4/1 3/2/1
f 4/4/2 8/6/2 7/5/2
f 8/6/3 6/8/3 5/7/3
f 6/8/4 11/14/4 10/9/4
f 1/18/5 3/19/5 7/5/5
f 7/5/5 5/7/5 10/10/5
f 10/10/5 13/10/5 12/11/5
f 9/11/5 1/18/5 7/5/5
f 10/10/5 12/11/5 9/11/5
f 6/8/6 8/6/6 4/12/6
f 4/12/6 2/20/6 11/13/6
f 11/14/7 14/14/7 13/9/7
f 9/15/4 11/14/4 2/16/4
f 9/15/8 12/15/8 14/14/8
